<svg height="512" viewBox="0 0 512 512" width="512" xmlns="http://www.w3.org/2000/svg"><g id="User_Pin" data-name="User Pin"><g id="Flat"><path d="m256.125 509.349-4.139-2.5c-2-1.208-49.492-30.186-97.675-82.356-28.376-30.724-51.007-63.109-67.263-96.257-20.436-41.67-30.8-84.646-30.8-127.733 0-110.832 89.664-201 199.875-201s199.877 90.165 199.877 200.997c0 43.087-10.362 86.063-30.8 127.733-16.256 33.148-38.887 65.533-67.263 96.257-48.183 52.17-95.677 81.148-97.675 82.356z" fill="#e56161"/><circle cx="256" cy="200" fill="#bf4b4b" r="168"/><path d="m368 297.67v27.44a167.68 167.68 0 0 1 -224 0v-27.44a39.768 39.768 0 0 1 31.32-39.05l56.68-12.59v16a26.879 26.879 0 0 0 7.2 18.54 22.956 22.956 0 0 0 16.8 7.43c13.23 0 24-11.65 24-25.97v-16l56.68 12.59a39.768 39.768 0 0 1 31.32 39.05z" fill="#ffd740"/><path d="m256 296c-8.615 0-16.7-4.056-22.759-11.42l-.005-.006a42.554 42.554 0 0 1 -9.236-27.044v-49.53h64v49.53c0 21.213-14.355 38.47-32 38.47z" fill="#fac7b7"/><path d="m328.537 152h-10.637l-15.886-8.937c-7.043-3.963-12.127-4.089-17.541-.433a51.249 51.249 0 0 1 -56.915.026 13.872 13.872 0 0 0 -7.842-2.686c-2.857 0-6.041 1.01-9.736 3.091l-15.145 8.517h-9.1l-.926-6.946a70.539 70.539 0 0 1 17.02-55.715 73.95 73.95 0 0 1 110.88.185 70.5 70.5 0 0 1 16.794 56z" fill="#525252"/><path d="m343.374 260.724a172.25 172.25 0 0 1 -178.264 80.505 167.678 167.678 0 0 0 202.89-16.119v-27.44a39.729 39.729 0 0 0 -24.626-36.946z" fill="#ffc400"/><circle cx="176" cy="288" fill="#ffe7a4" r="16"/><circle cx="204" cy="316" fill="#ffe7a4" r="12"/><circle cx="214.857" cy="414.857" fill="#f29c9c" r="22.857"/><circle cx="254.857" cy="454.857" fill="#f29c9c" r="17.143"/><path d="m312.706 89.1a72.4 72.4 0 0 0 -11.2-10.4 92.08 92.08 0 0 1 -115.839 42.672 69.594 69.594 0 0 0 -.859 23.261l.926 6.946h9.1l15.145-8.517c3.695-2.081 6.879-3.091 9.736-3.091a13.872 13.872 0 0 1 7.842 2.686 51.249 51.249 0 0 0 56.915-.026c5.414-3.656 10.5-3.53 17.541.433l15.887 8.936h10.633l.963-6.893a70.5 70.5 0 0 0 -16.79-56.007z" fill="#3f3f3f"/><path d="m257.186 240c-28.447 0-53.2-17.888-61.608-44.511l-.191-.719-9.677-44.827c-.365-1.741-.657-3.462-.9-5.305l-.022-.16a11.012 11.012 0 0 1 7.29-11.853l10.064-3.508c6.149-3.463 11.9-5.147 17.581-5.147a29.672 29.672 0 0 1 16.751 5.4 35.248 35.248 0 0 0 39.091-.021c10.452-7.059 22-7.145 34.3-.227l12.176 4.008a11.011 11.011 0 0 1 7.459 11.97c-.229 1.647-.509 3.257-.829 4.79l-9.771 45.244-.112.355c-8.398 26.623-33.156 44.511-61.602 44.511z" fill="#ffdecf"/><path d="m322.038 133.125-9.3-3.06a108.036 108.036 0 0 1 -105.738 85.935c-.157 0-.313 0-.47-.006a64.659 64.659 0 0 0 50.656 24.006c28.446 0 53.2-17.888 61.607-44.511l.112-.355 9.766-45.239c.32-1.533.6-3.143.829-4.79a11.011 11.011 0 0 0 -7.462-11.98z" fill="#ffd3c2"/><circle cx="212" cy="156" fill="#fff5f2" r="12"/><circle cx="232" cy="176" fill="#fff5f2" r="8"/><circle cx="232" cy="88" fill="#848484" r="8"/></g></g></svg>