<svg id="Capa_1" enable-background="new 0 0 512 512" height="512" viewBox="0 0 512 512" width="512" xmlns="http://www.w3.org/2000/svg"><g><g><g><g><g><g><g><g><path d="m278.239 466.745c12.227 0 22.139-9.912 22.139-22.139v-421.259c0-12.227-9.912-22.139-22.139-22.139h-256.1c-12.227-.001-22.139 9.912-22.139 22.139v421.259c0 12.227 9.912 22.139 22.139 22.139h314.8.01z" fill="#ffe07d"/><path d="m336.94 1.208h-65.396c12.227 0 22.139 9.912 22.139 22.139v421.259c0 12.227-9.912 22.139-22.139 22.139h65.396c12.227 0 22.139-9.912 22.139-22.139v-421.259c0-12.227-9.912-22.139-22.139-22.139z" fill="#ffd064"/><path d="m346.816 488.653v-421.259c0-12.227-9.912-22.139-22.139-22.139h-161.585c-8.424 0-16.502 3.346-22.459 9.303l-87.283 87.283c-5.956 5.956-9.303 14.035-9.303 22.459v324.354c0 12.227 9.912 22.139 22.139 22.139h258.49c12.228 0 22.14-9.913 22.14-22.14z" fill="#f4fbff"/><path d="m380.987 45.255h-65.238c12.227 0 22.139 9.912 22.139 22.139v421.259c0 12.227-9.912 22.139-22.139 22.139h65.238c12.227 0 22.139-9.912 22.139-22.139v-421.259c0-12.227-9.912-22.139-22.139-22.139z" fill="#e4f6ff"/></g></g></g></g></g><g><g><path d="m512 388.074v-16.428c0-8.293-6.723-15.015-15.015-15.015-6.499 0-12.235-4.19-14.272-10.362-1.669-5.057-3.705-9.946-6.076-14.638-2.911-5.76-1.742-12.745 2.821-17.309l.002-.002c5.864-5.864 5.864-15.371 0-21.235l-11.616-11.616c-5.864-5.864-15.371-5.864-21.235 0l-.002.002c-4.564 4.564-11.549 5.733-17.309 2.821-4.691-2.371-9.581-4.407-14.638-6.076-6.172-2.037-10.362-7.773-10.362-14.272 0-8.293-6.723-15.015-15.015-15.015h-16.428c-8.293 0-15.016 6.723-15.016 15.015 0 6.499-4.19 12.235-10.362 14.272-5.057 1.669-9.946 3.705-14.638 6.076-5.76 2.911-12.745 1.742-17.309-2.821l-.002-.002c-5.864-5.864-15.371-5.864-21.235 0l-11.616 11.616c-5.864 5.864-5.864 15.371 0 21.235l.002.002c4.564 4.564 5.733 11.549 2.821 17.309-2.371 4.691-4.407 9.581-6.076 14.638-2.037 6.172-7.773 10.362-14.272 10.362-8.293 0-15.015 6.723-15.015 15.015v16.428c0 8.293 6.723 15.016 15.015 15.016 6.499 0 12.235 4.19 14.272 10.362 1.669 5.057 3.705 9.946 6.076 14.638 2.911 5.76 1.742 12.745-2.821 17.309l-.002.002c-5.864 5.864-5.864 15.371 0 21.235l11.616 11.616c5.864 5.864 15.371 5.864 21.235 0l.002-.002c4.564-4.564 11.549-5.733 17.309-2.821 4.691 2.371 9.581 4.407 14.638 6.076 6.172 2.037 10.362 7.773 10.362 14.272 0 8.293 6.723 15.015 15.016 15.015h16.428c8.293 0 15.015-6.723 15.015-15.015 0-6.499 4.19-12.235 10.362-14.272 5.057-1.669 9.946-3.705 14.638-6.076 5.76-2.911 12.745-1.742 17.309 2.821l.002.002c5.864 5.864 15.371 5.864 21.235 0l11.616-11.616c5.864-5.864 5.864-15.371 0-21.235l-.002-.002c-4.564-4.564-5.733-11.549-2.821-17.309 2.371-4.691 4.407-9.581 6.076-14.638 2.037-6.172 7.773-10.362 14.272-10.362 8.292 0 15.015-6.723 15.015-15.016z" fill="#b9cbea"/><circle cx="381.068" cy="379.86" fill="#cbe2ff" r="74.939"/><path d="m381.068 304.921c-11.58 0-22.546 2.627-32.335 7.316 25.2 12.072 42.604 37.815 42.604 67.623s-17.403 55.551-42.604 67.623c9.79 4.69 20.756 7.316 32.335 7.316 41.388 0 74.939-33.551 74.939-74.939 0-41.387-33.552-74.939-74.939-74.939z" fill="#bed8fb"/></g><g><path d="m381.068 454.799c23.179 0 43.895-10.527 57.641-27.057-10.793-20.847-32.546-35.101-57.641-35.101-25.095 0-46.848 14.254-57.641 35.101 13.746 16.53 34.462 27.057 57.641 27.057z" fill="#4a80aa"/><path d="m381.068 454.799c23.179 0 43.895-10.527 57.641-27.057-9.469-18.289-27.374-31.504-48.57-34.471-4.333 23.98-20.075 43.992-41.403 54.21 9.788 4.691 20.753 7.318 32.332 7.318z" fill="#407093"/><g fill="#365e7d"><circle cx="381.068" cy="371.472" r="27.693"/><path d="m382.104 343.799c5.884 10.699 9.232 22.989 9.232 36.062 0 6.245-.764 12.312-2.204 18.112 11.361-3.453 19.629-14.011 19.629-26.5 0-14.948-11.843-27.129-26.657-27.674z"/></g></g></g><path d="m127.797 151.143c12.227 0 22.139-9.912 22.139-22.139v-80.888c-3.429 1.561-6.588 3.726-9.303 6.441l-87.283 87.284c-2.715 2.715-4.881 5.874-6.441 9.303h80.888z" fill="#e28086"/></g><g><g><path d="m348.251 104.901h-127.544c-5.893 0-10.67 4.777-10.67 10.67v20.898c0 5.893 4.777 10.67 10.67 10.67h127.545c5.893 0 10.67-4.777 10.67-10.67v-20.898c-.001-5.893-4.778-10.67-10.671-10.67z" fill="#cbe2ff"/></g></g><path d="m348.251 147.139c5.893 0 10.67-4.777 10.67-10.67v-20.898c0-5.893-4.777-10.67-10.67-10.67h-10.363v42.237h10.363z" fill="#bed8fb"/><g><g><g><path d="m210.037 286.757h-121.784c-4.268 0-7.726-3.459-7.726-7.726s3.459-7.726 7.726-7.726h121.785c4.268 0 7.726 3.459 7.726 7.726s-3.459 7.726-7.727 7.726z" fill="#407093"/></g><g><path d="m210.037 338.539h-121.784c-4.268 0-7.726-3.459-7.726-7.726s3.459-7.726 7.726-7.726h121.785c4.268 0 7.726 3.459 7.726 7.726s-3.459 7.726-7.727 7.726z" fill="#407093"/></g><g><path d="m210.037 390.322h-121.784c-4.268 0-7.726-3.459-7.726-7.726s3.459-7.726 7.726-7.726h121.785c4.268 0 7.726 3.459 7.726 7.726s-3.459 7.726-7.727 7.726z" fill="#407093"/></g><g><path d="m149.936 442.105h-61.683c-4.268 0-7.726-3.459-7.726-7.726s3.459-7.726 7.726-7.726h61.683c4.268 0 7.726 3.459 7.726 7.726s-3.459 7.726-7.726 7.726z" fill="#407093"/></g></g></g></g></g></svg>