<?xml version="1.0" encoding="iso-8859-1"?>
<!-- Generator: Adobe Illustrator 19.0.0, SVG Export Plug-In . SVG Version: 6.00 Build 0)  -->
<svg version="1.1" id="Capa_1" xmlns="http://www.w3.org/2000/svg" xmlns:xlink="http://www.w3.org/1999/xlink" x="0px" y="0px"
	 viewBox="0 0 512 512" style="enable-background:new 0 0 512 512;" xml:space="preserve">
<linearGradient id="SVGID_1_" gradientUnits="userSpaceOnUse" x1="0" y1="258" x2="512" y2="258" gradientTransform="matrix(1 0 0 -1 0 514)">
	<stop  offset="0" style="stop-color:#00F2FE"/>
	<stop  offset="0.021" style="stop-color:#03EFFE"/>
	<stop  offset="0.293" style="stop-color:#24D2FE"/>
	<stop  offset="0.554" style="stop-color:#3CBDFE"/>
	<stop  offset="0.796" style="stop-color:#4AB0FE"/>
	<stop  offset="1" style="stop-color:#4FACFE"/>
</linearGradient>
<path style="fill:url(#SVGID_1_);" d="M257,276c-11.046,0-20-8.954-20-20V20c0-11.046,8.954-20,20-20c11.046,0,20,8.954,20,20v236
	C277,267.046,268.046,276,257,276z M468.626,398.116C497.001,355.674,512,306.531,512,256c0-53.495-16.361-104.654-47.315-147.945
	c-30.198-42.235-71.978-73.993-120.82-91.84c-10.375-3.792-21.859,1.546-25.649,11.921c-3.791,10.375,1.546,21.858,11.921,25.649
	C414.989,84.791,472,166.055,472,256c0,42.589-12.665,84.044-36.626,119.885c-6.139,9.183-3.672,21.603,5.511,27.742
	c3.415,2.283,7.276,3.375,11.097,3.375C458.435,407.002,464.771,403.884,468.626,398.116z M388.462,475.107
	c9.447-5.723,12.467-18.021,6.744-27.468c-5.723-9.449-18.022-12.468-27.468-6.745C334.143,461.244,295.505,472,256,472
	c-119.103,0-216-96.897-216-216c0-90.988,57.746-172.629,143.693-203.153c10.409-3.697,15.85-15.131,12.153-25.54
	s-15.132-15.85-25.54-12.153c-49.382,17.538-91.687,49.3-122.342,91.854C16.586,150.565,0,202.086,0,256
	c0,68.38,26.628,132.667,74.98,181.02C123.333,485.371,187.62,512,256,512C302.813,512,348.617,499.243,388.462,475.107z"/>
<g>
</g>
<g>
</g>
<g>
</g>
<g>
</g>
<g>
</g>
<g>
</g>
<g>
</g>
<g>
</g>
<g>
</g>
<g>
</g>
<g>
</g>
<g>
</g>
<g>
</g>
<g>
</g>
<g>
</g>
</svg>
