<?xml version="1.0" encoding="iso-8859-1"?>
<!-- Generator: Adobe Illustrator 19.0.0, SVG Export Plug-In . SVG Version: 6.00 Build 0)  -->
<svg version="1.1" id="Capa_1" xmlns="http://www.w3.org/2000/svg" xmlns:xlink="http://www.w3.org/1999/xlink" x="0px" y="0px"
	 viewBox="0 0 512 512" style="enable-background:new 0 0 512 512;" xml:space="preserve">
<linearGradient id="SVGID_1_" gradientUnits="userSpaceOnUse" x1="0" y1="258" x2="512" y2="258" gradientTransform="matrix(1 0 0 -1 0 514)">
	<stop  offset="0" style="stop-color:#00F2FE"/>
	<stop  offset="0.021" style="stop-color:#03EFFE"/>
	<stop  offset="0.293" style="stop-color:#24D2FE"/>
	<stop  offset="0.554" style="stop-color:#3CBDFE"/>
	<stop  offset="0.796" style="stop-color:#4AB0FE"/>
	<stop  offset="1" style="stop-color:#4FACFE"/>
</linearGradient>
<path style="fill:url(#SVGID_1_);" d="M110,170H60c-33.084,0-60-26.916-60-60V60C0,26.916,26.916,0,60,0h50
	c33.084,0,60,26.916,60,60v50C170,143.084,143.084,170,110,170z M60,40c-11.028,0-20,8.972-20,20v50c0,11.028,8.972,20,20,20h50
	c11.028,0,20-8.972,20-20V60c0-11.028-8.972-20-20-20H60z M105,65H65v40h40V65z M452,170h-50c-33.084,0-60-26.916-60-60V60
	c0-33.084,26.916-60,60-60h50c33.084,0,60,26.916,60,60v50C512,143.084,485.084,170,452,170z M402,40c-11.028,0-20,8.972-20,20v50
	c0,11.028,8.972,20,20,20h50c11.028,0,20-8.972,20-20V60c0-11.028-8.972-20-20-20H402z M447,65h-40v40h40V65z M110,512H60
	c-33.084,0-60-26.916-60-60v-50c0-33.084,26.916-60,60-60h50c33.084,0,60,26.916,60,60v50C170,485.084,143.084,512,110,512z M60,382
	c-11.028,0-20,8.972-20,20v50c0,11.028,8.972,20,20,20h50c11.028,0,20-8.972,20-20v-50c0-11.028-8.972-20-20-20H60z M105,407H65v40
	h40V407z M40,197v40h40v-40H40z M80,277h39v40h40v-40h-39v-40H80V277z M320,77h-40v40h40V77z M240,40h-40v77h40V40z M280,0h-40v40
	h40V0z M280,117h-40v40h-40v40h80V117z M200,317h40v39h40v39h80v-40h-80v-39h-40v-79h-40V317z M320,197h-40v80h40V197z M472,236v-39
	h-73v40h-39v40h40v39h112v-80H472z M400,276v-39h72v39H400z M512,355h-40v80h40V355z M320,317h40v-40h-40V317z M400,435v-40h-40v40
	H400z M440,355h-40v40h40V355z M400,512h40v-37h32v-40h-72V512z M200,432h40v-76h-40V432z M240,512h40v-40h39v40h40v-40h-39v-40h-80
	V512z M120,237h80v-40h-80V237z M0,317h40v-80H0V317z"/>
<g>
</g>
<g>
</g>
<g>
</g>
<g>
</g>
<g>
</g>
<g>
</g>
<g>
</g>
<g>
</g>
<g>
</g>
<g>
</g>
<g>
</g>
<g>
</g>
<g>
</g>
<g>
</g>
<g>
</g>
</svg>
