<?xml version="1.0" encoding="iso-8859-1"?>
<!-- Generator: Adobe Illustrator 19.0.0, SVG Export Plug-In . SVG Version: 6.00 Build 0)  -->
<svg version="1.1" id="Capa_1" xmlns="http://www.w3.org/2000/svg" xmlns:xlink="http://www.w3.org/1999/xlink" x="0px" y="0px"
	 viewBox="0 0 490.057 490.057" style="enable-background:new 0 0 490.057 490.057;" xml:space="preserve">
<g>
	<g>
		<path style="fill:#00EFD1;" d="M287.347,110.182c11.216,10.991,17.446,26.094,17.241,41.796
			c0.287,15.871-5.944,31.166-17.241,42.318c-23.145,23.373-60.856,23.557-84.228,0.411c-11.396-11.286-17.76-26.691-17.649-42.73
			c-0.205-15.702,6.025-30.805,17.241-41.796c22.734-23.372,60.111-23.889,83.483-1.154
			C286.583,109.407,286.968,109.792,287.347,110.182z"/>
		<path style="fill:#00EFD1;" d="M294.139,231.912c41.233,9.936,70.219,46.926,70.008,89.339v9.927H125.91v-9.927
			c0.096-42.655,29.514-79.644,71.053-89.339c14.116,10.26,31.137,15.751,48.588,15.673
			C262.98,247.521,279.958,242.044,294.139,231.912z"/>
	</g>
	<g>
		<path style="fill:#083863;" d="M245.029,222.508c-38.664,0.001-70.009-31.342-70.01-70.006c0-0.175,0.001-0.35,0.002-0.524
			c0.1-18.56,7.405-36.356,20.376-49.633c27.488-27.225,71.777-27.225,99.265,0c27.287,27.666,27.287,72.121,0,99.788
			C281.479,215.246,263.622,222.577,245.029,222.508z M245.029,102.867c-13.145,0.048-25.734,5.309-35.004,14.629
			c-9.249,9.061-14.352,21.536-14.106,34.482c-0.31,27.121,21.425,49.358,48.546,49.668c13.357,0.153,26.2-5.142,35.569-14.664
			c9.278-9.257,14.373-21.901,14.106-35.004c0.246-12.946-4.857-25.42-14.106-34.482
			C270.762,108.177,258.173,102.916,245.029,102.867z"/>
		<path style="fill:#083863;" d="M245.029,258.035c-19.632,0.087-38.804-5.939-54.857-17.241c-4.557-3.047-5.781-9.212-2.734-13.769
			c0.199-0.298,0.414-0.585,0.644-0.859c3.273-4.753,9.779-5.952,14.532-2.679c0.032,0.022,0.064,0.045,0.096,0.067
			c25.297,18.139,59.34,18.139,84.637,0c4.716-3.326,11.235-2.2,14.561,2.516c0.023,0.032,0.045,0.064,0.067,0.096
			c3.522,4.201,2.971,10.462-1.231,13.984c-0.275,0.23-0.561,0.445-0.859,0.644C283.833,252.096,264.661,258.121,245.029,258.035z"
			/>
		<path style="fill:#083863;" d="M364.147,341.626H125.91c-5.771,0-10.449-4.678-10.449-10.449v-10.449
			c0.373-47.281,32.914-88.226,78.89-99.265c2.959-0.612,6.036,0.157,8.359,2.09c25.511,18.07,59.648,18.07,85.159,0
			c2.356-1.867,5.402-2.628,8.359-2.09c45.663,11.407,77.869,52.202,78.367,99.265v10.449
			C374.596,336.948,369.918,341.626,364.147,341.626z M136.359,320.728h217.339c-0.144-35.749-23.713-67.174-57.992-77.322
			c-30.77,19.542-70.062,19.542-100.833,0C160.49,253.512,136.743,284.893,136.359,320.728L136.359,320.728z"/>
		<path style="fill:#083863;" d="M402.286,425.218h-70.531c-5.771,0-10.449-4.678-10.449-10.449
			c-0.297-5.474,3.901-10.152,9.375-10.449c0.358-0.019,0.716-0.019,1.074,0h70.531c36.933,0,66.873-29.94,66.873-66.873
			c0,0,0,0,0,0c0-5.771,4.678-10.449,10.449-10.449s10.449,4.678,10.449,10.449C490.057,385.922,450.761,425.218,402.286,425.218
			L402.286,425.218z"/>
		<path style="fill:#083863;" d="M369.894,481.643c-3.003-0.095-5.835-1.417-7.837-3.657l-48.588-56.424
			c-3.653-3.993-3.653-10.113,0-14.106l48.588-56.947c3.772-4.287,10.286-4.752,14.629-1.045c4.11,4.068,4.558,10.557,1.045,15.151
			l-42.841,49.633l42.841,50.155c3.776,3.974,3.616,10.257-0.358,14.034c-0.22,0.209-0.449,0.407-0.686,0.595
			C374.785,480.649,372.389,481.57,369.894,481.643z"/>
		<path style="fill:#083863;" d="M10.449,162.949C4.678,162.949,0,158.271,0,152.5c0-48.475,39.297-87.771,87.771-87.771l0,0h75.755
			c5.771,0,10.449,4.678,10.449,10.449c0.297,5.474-3.901,10.152-9.375,10.449c-0.358,0.019-0.716,0.019-1.074,0H87.771
			c-36.933,0-66.873,29.94-66.873,66.873C20.898,158.271,16.22,162.949,10.449,162.949z"/>
		<path style="fill:#083863;" d="M124.865,143.096c-2.495-0.073-4.891-0.994-6.792-2.612c-4.457-3.666-5.097-10.251-1.431-14.708
			c0.125-0.151,0.253-0.299,0.386-0.443L159.869,75.7l-42.841-50.155c-3.776-3.974-3.616-10.257,0.358-14.034
			c0.22-0.209,0.449-0.407,0.686-0.595c4.343-3.707,10.857-3.242,14.629,1.045l48.588,56.424c3.653,3.993,3.653,10.113,0,14.106
			l-48.588,56.947C130.634,141.588,127.841,142.892,124.865,143.096z"/>
	</g>
</g>
<g>
</g>
<g>
</g>
<g>
</g>
<g>
</g>
<g>
</g>
<g>
</g>
<g>
</g>
<g>
</g>
<g>
</g>
<g>
</g>
<g>
</g>
<g>
</g>
<g>
</g>
<g>
</g>
<g>
</g>
</svg>
