<svg id="Users_Male_And_Female_Add" height="512" viewBox="0 0 512 512" width="512" xmlns="http://www.w3.org/2000/svg" data-name="Users Male And Female Add"><g id="Flat"><path d="m411.333 192h-126.666c-11.4 0-20.667-8.972-20.667-20v-60c0-44.112 37.683-80 84-80s84 35.888 84 80v60c0 11.028-9.271 20-20.667 20z" fill="#525252"/><path d="m406.564 54.727a151.97 151.97 0 0 1 -134.564 81.273q-4.026 0-8-.209v36.209c0 11.028 9.271 20 20.667 20h126.666c11.4 0 20.667-8.972 20.667-20v-60c0-22.436-9.761-42.731-25.436-57.273z" fill="#3f3f3f"/><path d="m348.082 251.959-28.082-44.217h8.323v-31.742h39.518v32h8.159z" fill="#fac7b7"/><path d="m440 432h-184v-192.258a32 32 0 0 1 32-32h40.323l19.677 20.299 19.841-20.041h40.159a32 32 0 0 1 32 32z" fill="#ce93d8"/><path d="m348 200a44.049 44.049 0 0 1 -44-44v-28h88v28a44.049 44.049 0 0 1 -44 44z" fill="#ffdecf"/><path d="m400 136h-104v-24a8 8 0 0 1 16 0v8h72v-8a8 8 0 0 1 16 0z" fill="#262626"/><circle cx="316" cy="68" fill="#848484" r="12"/><circle cx="344" cy="88" fill="#848484" r="8"/><path d="m320.333 184q-3.248 0-6.436-.235a43.979 43.979 0 0 0 78.103-27.765v-8.924a87.888 87.888 0 0 1 -71.667 36.924z" fill="#ffd3c2"/><path d="m408 208h-8.048a171.775 171.775 0 0 1 -139.952 72c-1.337 0-2.67-.02-4-.051v152.051h184v-192a32 32 0 0 0 -32-32z" fill="#c087cc"/><path d="m272.953 237.509-80.953-13.509h-80l-80.952 13.509a38.009 38.009 0 0 0 -31.048 37.358v237.133h304v-237.133a38.01 38.01 0 0 0 -31.047-37.358z" fill="#0277bd"/><path d="m28 448a279.16 279.16 0 0 1 -28-1.406v65.406h304v-237.133a37.947 37.947 0 0 0 -10.726-26.448c-33.143 115.256-139.357 199.581-265.274 199.581z" fill="#0469bc"/><path d="m248 512a8 8 0 0 1 -8-8v-186.322a8 8 0 0 1 16 0v186.322a8 8 0 0 1 -8 8z" fill="#01579b"/><path d="m56 512a8 8 0 0 1 -8-8v-186.322a8 8 0 0 1 16 0v186.322a8 8 0 0 1 -8 8z" fill="#01579b"/><path d="m210.123 92.767-.472-.266c-9.163-5.154-15.822-5.284-22.981-.451a60.319 60.319 0 0 1 -66.979.026 18.359 18.359 0 0 0 -10.417-3.531c-3.753 0-7.874 1.293-12.6 3.954l-.572.322-20.283-.412a8.03 8.03 0 0 1 -7.843-8.12 84.144 84.144 0 0 1 22.07-56.017 87.468 87.468 0 0 1 64.554-28.272 87.352 87.352 0 0 1 65.15 28.948 83.992 83.992 0 0 1 21.453 56.8 8.024 8.024 0 0 1 -8.336 7.954z" fill="#525252"/><path d="m219.75 28.948a85.828 85.828 0 0 0 -14.2-12.707 120.2 120.2 0 0 1 -66.381 84.325 60.292 60.292 0 0 0 47.5-8.516c7.159-4.833 13.818-4.7 22.981.451l.472.266 22.744.934a8.024 8.024 0 0 0 8.336-7.954 83.992 83.992 0 0 0 -21.452-56.799z" fill="#3f3f3f"/><path d="m112 176h80v88h-80z" fill="#fac7b7"/><circle cx="392" cy="392" fill="#ffd740" r="120"/><path d="m416 464h-48v-48h-48v-48h48v-48h48v48h48v48h-48z" fill="#0277bd"/><path d="m154.6 209.549c-33.675 0-62.981-21.167-72.926-52.672l-.19-.72-11.711-54.225a85.006 85.006 0 0 1 -1.456-9.675l-.564-6.139 21.664-7.889c6.959-3.824 13.462-5.684 19.857-5.684a34.234 34.234 0 0 1 19.326 6.241 44.317 44.317 0 0 0 49.135-.01c12.147-8.192 25-8.355 39.27-.493l24.372 9.657-.689 6.083c-.3 2.654-.725 5.3-1.262 7.862l-11.794 54.636-.112.356c-9.944 31.505-39.25 52.672-72.92 52.672z" fill="#ffdecf"/><path d="m124 168a131.9 131.9 0 0 1 -40.645-6.386c11.276 28.867 39.285 47.935 71.24 47.935 33.675 0 62.981-21.167 72.926-52.672l.112-.356 11.794-54.636c.187-.894.342-1.806.5-2.717a131.968 131.968 0 0 1 -115.927 68.832z" fill="#ffd3c2"/><path d="m467.57 298.859a119.942 119.942 0 0 1 -183.14 146.282 119.975 119.975 0 1 0 183.14-146.282z" fill="#ffc400"/><path d="m368 424.937v39.063h48v-48h48v-48h-22.412a140.362 140.362 0 0 1 -73.588 56.937z" fill="#0469bc"/><circle cx="60" cy="272" fill="#4baee0" r="24"/><circle cx="96" cy="312" fill="#4baee0" r="16"/><circle cx="104" cy="104" fill="#fff5f2" r="16"/><circle cx="132" cy="132" fill="#fff5f2" r="12"/><circle cx="132" cy="28" fill="#848484" r="12"/><path d="m128 248h48v48h-48z" fill="#f2b200"/><path d="m152 491.313-40.355-40.355 17.153-162.958h46.404l17.153 162.958z" fill="#ffd740"/><path d="m225.457 230-34.077-24.694-39.38 39.38-39.38-39.38-34.077 24.694 20.948 61.198 52.509-43.198 52.509 43.198z" fill="#0277bd"/><path d="m181.148 344.49a152.546 152.546 0 0 1 -66.277 75.81l-3.226 30.656 40.355 40.357 40.355-40.355z" fill="#ffc400"/><g fill="#0469bc"><path d="m137.7 230.384a79.736 79.736 0 0 1 -50.71 24.293l12.5 36.521 52.51-43.198v-3.314z"/><path d="m214.414 222a80.209 80.209 0 0 1 -47.154 38.556l37.249 30.644 20.948-61.2z"/></g></g></svg>